<svg xmlns="http://www.w3.org/2000/svg"  viewBox="0 0 40 40" width="40px" height="40px"><path fill="#cfe7cb" d="M37.995,38.465c-2.113-0.165-4.481-0.831-6.779-1.917l-0.193-0.091l-0.199,0.076 c-1.694,0.645-3.485,0.972-5.324,0.972c-7.168,0-13-4.935-13-11s5.832-11,13-11s13,4.935,13,11c0,2.53-1.042,5.001-2.935,6.958 l-0.242,0.25l0.151,0.314C36.292,35.729,37.138,37.216,37.995,38.465z"/><path fill="#5d9774" d="M25.5,16.005c6.893,0,12.5,4.71,12.5,10.5c0,2.4-0.992,4.748-2.794,6.611l-0.484,0.501 l0.302,0.628c0.641,1.333,1.3,2.537,1.968,3.602c-1.775-0.267-3.691-0.866-5.563-1.751l-0.385-0.182l-0.398,0.152 c-1.637,0.623-3.368,0.939-5.146,0.939c-6.893,0-12.5-4.71-12.5-10.5S18.607,16.005,25.5,16.005 M25.5,15.005 c-7.456,0-13.5,5.149-13.5,11.5S18.044,38,25.5,38c1.961,0,3.82-0.359,5.501-1c2.546,1.203,5.404,2.005,7.999,2.005 c-1.176-1.549-2.201-3.377-3.075-5.194C37.846,31.825,39,29.28,39,26.505C39,20.154,32.956,15.005,25.5,15.005L25.5,15.005z"/><rect width="15" height="1" x="18" y="23" fill="#447d5a"/><rect width="15" height="1" x="18" y="29" fill="#447d5a"/><path fill="#c1e3f7" d="M2.005,24.465c0.857-1.249,1.702-2.736,2.521-4.437l0.151-0.314l-0.242-0.25 C2.542,17.506,1.5,15.035,1.5,12.505c0-6.065,5.832-11,13-11s13,4.935,13,11s-5.832,11-13,11c-1.839,0-3.63-0.327-5.323-0.972 l-0.199-0.076l-0.193,0.091C6.487,23.634,4.119,24.3,2.005,24.465z"/><path fill="#7290bb" d="M14.5,2.005c6.893,0,12.5,4.71,12.5,10.5s-5.607,10.5-12.5,10.5c-1.778,0-3.509-0.316-5.145-0.939 l-0.398-0.152l-0.385,0.182C6.7,22.981,4.784,23.58,3.009,23.847c0.668-1.065,1.326-2.269,1.968-3.602l0.302-0.628l-0.484-0.501 C2.992,17.253,2,14.905,2,12.505C2,6.715,7.607,2.005,14.5,2.005 M14.5,1.005C7.044,1.005,1,6.154,1,12.505 c0,2.775,1.154,5.32,3.075,7.306C3.201,21.628,2.176,23.456,1,25.005c2.595,0,5.453-0.802,7.999-2.005 c1.681,0.641,3.54,1.005,5.501,1.005c7.456,0,13.5-5.149,13.5-11.5S21.956,1.005,14.5,1.005L14.5,1.005z"/><g><rect width="15" height="1" x="7" y="9" fill="#4d76ac"/></g><g><rect width="15" height="1" x="7" y="15" fill="#4d76ac"/></g></svg>